<svg xmlns="http://www.w3.org/2000/svg" width="37.619" height="42.981" viewBox="0 0 37.619 42.981"><path fill="#a39c8c" d="M37.619 24.184a6.67 6.67 0 0 1-1.968 4.75L23.559 41.025a6.75 6.75 0 0 1-9.5 0L1.968 28.934a6.718 6.718 0 0 1 4.75-11.468 7.07 7.07 0 0 1 5.374 2.592V6.717a6.718 6.718 0 0 1 13.435 0v13.34a6.854 6.854 0 0 1 10.125-.624 6.67 6.67 0 0 1 1.967 4.75Zm-34.93 0a4.02 4.02 0 0 0 1.179 2.85l12.091 12.092a4.05 4.05 0 0 0 5.7 0l12.092-12.092a4.031 4.031 0 1 0-5.7-5.7l-2.918 2.918a1.352 1.352 0 0 1-2.293-.95V6.717a4.031 4.031 0 0 0-8.061 0v16.584a1.352 1.352 0 0 1-2.293.95c-1.46-1.284-3.527-4.319-5.768-4.1a4.06 4.06 0 0 0-4.029 4.031Z"/></svg>