<svg xmlns="http://www.w3.org/2000/svg" width="98.648" height="98.645" viewBox="0 0 98.648 98.645"><path fill="#fba361" d="M82.144 21.871a16.52 16.52 0 0 0 16.5-16.5V1.452A1.45 1.45 0 0 0 97.192 0H1.453A1.45 1.45 0 0 0 .001 1.452v3.92a16.52 16.52 0 0 0 16.5 16.5h24.525v9.393H19.765a12.036 12.036 0 0 0-11.914 10.1L.02 88.533a1.452 1.452 0 0 0 1.433 1.69h4.933v6.97a1.45 1.45 0 0 0 1.452 1.452h82.973a1.45 1.45 0 0 0 1.452-1.452v-6.97h4.933a1.452 1.452 0 0 0 1.433-1.689l-7.831-47.171a12.036 12.036 0 0 0-11.915-10.1H57.625v-9.392ZM2.905 5.372V2.904h92.839v2.468a13.61 13.61 0 0 1-13.6 13.595H16.5A13.61 13.61 0 0 1 2.905 5.372m86.452 90.371H9.287v-5.52h80.07Zm-1.426-53.9 7.551 45.48H3.166l7.55-45.48a9.14 9.14 0 0 1 9.048-7.67h59.119a9.14 9.14 0 0 1 9.048 7.67m-33.21-10.579H43.93v-9.393h10.8Z"/><path fill="#fba361" d="M28.01 60.743a21.313 21.313 0 1 0 21.313-21.312A21.313 21.313 0 0 0 28.01 60.743m39.662-1.452h-2.433a1.452 1.452 0 0 0 0 2.9h2.429a18.43 18.43 0 0 1-16.893 16.898v-2.43a1.452 1.452 0 1 0-2.9 0v2.429a18.43 18.43 0 0 1-16.898-16.893h2.43a1.452 1.452 0 0 0 0-2.9h-2.43a18.43 18.43 0 0 1 16.894-16.898v2.429a1.452 1.452 0 1 0 2.9 0v-2.429a18.43 18.43 0 0 1 16.898 16.894Z"/><path fill="#fba361" d="M51.226 56.79a4.451 4.451 0 1 0 2.051 2.054l5.719-5.72a1.452 1.452 0 0 0-2.053-2.053Zm-1.9 5.448a1.494 1.494 0 1 1 1.494-1.494 1.494 1.494 0 0 1-1.494 1.494M29.462 6.186h-15.1a1.452 1.452 0 1 0 0 2.9h15.1a1.452 1.452 0 1 0 0-2.9m10.646 0h-4.443a1.452 1.452 0 1 0 0 2.9h4.442a1.452 1.452 0 0 0 0-2.9Z"/></svg>