<svg xmlns="http://www.w3.org/2000/svg" width="111.024" height="101.788" viewBox="0 0 111.024 101.788"><path fill="#fba361" fill-rule="evenodd" d="M91.317 88.912H19.641a1.3 1.3 0 0 1-1.3-1.3V52.227c0-8 4.423-18.211 10.537-24.325a1.18 1.18 0 0 1 .911-.39h51.447a1.28 1.28 0 0 1 .911.39c6.049 6.114 10.472 16.325 10.472 24.325v35.385a1.3 1.3 0 0 1-1.302 1.3m-70.376-2.6h69.073V52.227c0-7.089-3.967-16.52-9.366-22.114h-50.34c-5.333 5.594-9.366 15.024-9.366 22.114Z"/><path fill="#fba361" fill-rule="evenodd" d="M92.228 30.114h-73.5A12.325 12.325 0 0 1 6.439 17.821v-5.529a1.3 1.3 0 0 1 1.3-1.3h95.545a1.3 1.3 0 0 1 1.3 1.3v5.528a12.34 12.34 0 0 1-12.356 12.294M9.039 13.592v4.228a9.715 9.715 0 0 0 9.691 9.691h73.5a9.73 9.73 0 0 0 9.756-9.691v-4.228Z"/><path fill="#fba361" fill-rule="evenodd" d="M109.724 13.593H1.3a1.3 1.3 0 0 1-1.3-1.3V6.764A6.815 6.815 0 0 1 6.829 0H104.2a6.815 6.815 0 0 1 6.829 6.764v5.528a1.3 1.3 0 0 1-1.305 1.301M2.6 10.992h105.823V6.764A4.206 4.206 0 0 0 104.2 2.6H6.829A4.206 4.206 0 0 0 2.6 6.764Zm52.882 67.382a20.13 20.13 0 1 1 20.16-20.16 20.166 20.166 0 0 1-20.16 20.16m0-37.658a17.528 17.528 0 1 0 17.561 17.5 17.543 17.543 0 0 0-17.561-17.502Z"/><path fill="#fba361" fill-rule="evenodd" d="M55.48 63.219a4.976 4.976 0 1 1 5.008-5.008 4.955 4.955 0 0 1-5.008 5.008m0-7.35a2.33 2.33 0 0 0-2.341 2.341 2.39 2.39 0 0 0 2.341 2.406 2.444 2.444 0 0 0 2.406-2.406 2.39 2.39 0 0 0-2.406-2.342Zm-.001-11.511a1.3 1.3 0 0 1-1.3-1.3v-3.644a1.3 1.3 0 1 1 2.6 0v3.642a1.3 1.3 0 0 1-1.3 1.302m7.611 2.016a1.17 1.17 0 0 1-.65-.13 1.3 1.3 0 0 1-.455-1.821l1.821-3.122a1.284 1.284 0 1 1 2.211 1.3l-1.821 3.122a1.14 1.14 0 0 1-1.106.651m5.528 5.593a1.332 1.332 0 0 1-.65-2.471l3.187-1.821a1.28 1.28 0 0 1 1.756.52 1.236 1.236 0 0 1-.455 1.756l-3.187 1.821a1.1 1.1 0 0 1-.651.195m5.723 7.543h-3.643a1.3 1.3 0 1 1 0-2.6h3.642a1.3 1.3 0 0 1 0 2.6Zm-2.536 9.433a1.25 1.25 0 0 1-.65-.2l-3.187-1.821a1.26 1.26 0 0 1-.455-1.756 1.224 1.224 0 0 1 1.756-.455l3.187 1.821a1.224 1.224 0 0 1 .455 1.756 1.145 1.145 0 0 1-1.106.655m-6.893 6.894a1.26 1.26 0 0 1-1.106-.65L61.985 72a1.224 1.224 0 0 1 .455-1.756 1.276 1.276 0 0 1 1.756.455l1.821 3.187a1.21 1.21 0 0 1-.455 1.756 1.1 1.1 0 0 1-.65.195m-9.433 2.537a1.3 1.3 0 0 1-1.3-1.3V73.43a1.3 1.3 0 0 1 2.6 0v3.642a1.3 1.3 0 0 1-1.3 1.302m-9.365-2.537a1.1 1.1 0 0 1-.65-.2 1.28 1.28 0 0 1-.52-1.756l1.821-3.187a1.35 1.35 0 0 1 1.821-.455 1.276 1.276 0 0 1 .455 1.756l-1.821 3.187a1.28 1.28 0 0 1-1.106.655m-6.895-6.894a1.277 1.277 0 0 1-.65-2.407l3.122-1.821a1.284 1.284 0 1 1 1.3 2.211l-3.122 1.821a1.45 1.45 0 0 1-.65.196m1.106-9.433h-3.643a1.3 1.3 0 0 1 0-2.6h3.642a1.3 1.3 0 0 1 0 2.6Zm2.016-7.543a1.45 1.45 0 0 1-.65-.2l-3.122-1.821a1.313 1.313 0 0 1-.52-1.756 1.374 1.374 0 0 1 1.821-.52l3.122 1.821a1.374 1.374 0 0 1 .52 1.821 1.45 1.45 0 0 1-1.171.655m5.594-5.593a1.3 1.3 0 0 1-1.171-.65l-1.821-3.122a1.374 1.374 0 0 1 .52-1.821 1.313 1.313 0 0 1 1.756.52l1.821 3.122a1.353 1.353 0 0 1-.455 1.821 1.17 1.17 0 0 1-.65.13"/><path fill="#fba361" fill-rule="evenodd" d="M55.479 55.87a1.3 1.3 0 0 1-1.3-1.3v-6.441a1.3 1.3 0 1 1 2.6 0v6.439a1.3 1.3 0 0 1-1.3 1.302m-16.975 45.919H28.422a1.3 1.3 0 0 1-1.3-1.3v-12.88a1.3 1.3 0 0 1 1.3-1.3h10.081a1.3 1.3 0 0 1 1.3 1.3v12.878a1.3 1.3 0 0 1-1.299 1.302m-8.78-2.6h7.48v-10.28h-7.482Zm52.813 2.6H72.52a1.3 1.3 0 0 1-1.3-1.3v-12.88a1.3 1.3 0 0 1 1.3-1.3h10.016a1.3 1.3 0 0 1 1.3 1.3v12.878a1.3 1.3 0 0 1-1.299 1.302m-8.715-2.6h7.415v-10.28H73.82Z"/></svg>