<svg xmlns="http://www.w3.org/2000/svg" width="51.106" height="51.106" viewBox="0 0 51.106 51.106"><path fill="#a39c8c" d="M12.364 0a12.364 12.364 0 1 0 12.365 12.364A12.364 12.364 0 0 0 12.364 0m0 23.08A10.716 10.716 0 1 1 23.08 12.364 10.716 10.716 0 0 1 12.364 23.08m0 0"/><path fill="#a39c8c" d="M18.959 11.54h-5.77V5.77a.825.825 0 1 0-1.649 0v5.77H5.77a.825.825 0 0 0 0 1.649h5.77v5.77a.825.825 0 0 0 1.649 0v-5.77h5.77a.825.825 0 0 0 0-1.649m-6.595 14.837a12.364 12.364 0 1 0 12.364 12.364 12.364 12.364 0 0 0-12.364-12.364m0 23.08A10.716 10.716 0 1 1 23.08 38.741a10.716 10.716 0 0 1-10.716 10.716m0 0"/><path fill="#a39c8c" d="M17.892 33.213a.825.825 0 0 0-1.166 0l-4.363 4.363L8 33.213a.824.824 0 0 0-1.166 1.166l4.363 4.363-4.363 4.363A.824.824 0 1 0 8 44.271l4.363-4.363 4.363 4.363a.824.824 0 0 0 1.166-1.166l-4.363-4.363 4.363-4.363a.825.825 0 0 0 0-1.166m20.849-8.484a12.364 12.364 0 1 0-12.364-12.365 12.364 12.364 0 0 0 12.364 12.365m0-23.08a10.716 10.716 0 1 1-10.716 10.716A10.716 10.716 0 0 1 38.741 1.649m0 0"/><path fill="#a39c8c" d="M32.147 13.189h13.189a.825.825 0 0 0 0-1.649H32.147a.825.825 0 1 0 0 1.649m6.594 13.188a12.364 12.364 0 1 0 12.364 12.364 12.364 12.364 0 0 0-12.364-12.364m0 23.08a10.716 10.716 0 1 1 10.716-10.716 10.716 10.716 0 0 1-10.716 10.716m0 0"/><path fill="#a39c8c" d="M45.336 37.917H32.147a.825.825 0 1 0 0 1.649h13.189a.825.825 0 0 0 0-1.649m-4.943-3.296a1.649 1.649 0 1 1-1.651-1.649 1.65 1.65 0 0 1 1.651 1.649m0 8.242a1.649 1.649 0 1 1-1.651-1.649 1.65 1.65 0 0 1 1.651 1.649m0 0"/></svg>