<svg xmlns="http://www.w3.org/2000/svg" width="63.917" height="69.587" viewBox="0 0 63.917 69.587">
  <g id="Grupo_1113577" data-name="Grupo 1113577" transform="translate(-181.454 -319.452)">
    <text id="_1" data-name="1" transform="translate(197.972 347.039)" fill="#fff" font-size="30" font-family="Roboto-Black, Roboto" font-weight="800"><tspan x="0" y="31">1</tspan></text>
    <g id="icono" transform="translate(178.454 313.155)">
      <path id="Trazado_875400" data-name="Trazado 875400" d="M22.52,151.028a30.822,30.822,0,0,0,34.832,9.414l.431-10.552" transform="translate(-12.948 -95.246)" fill="#fefefe"/>
      <g id="Grupo_1101420" data-name="Grupo 1101420" transform="translate(3 6.296)">
        <path id="Trazado_875401" data-name="Trazado 875401" d="M36.318,83.938c0-12.919-.2-26.9-.2-39.822,0-.269,0-.539,0-.811a1.593,1.593,0,0,1,1.189-1.69,6.387,6.387,0,0,1,2.451.071c.172.215.01.394-.071.572a8.317,8.317,0,0,0-.313,5.431A3.028,3.028,0,0,0,42.113,49.9c.165.013.333.013.5.013H64.679a3.237,3.237,0,0,0,3.236-2.165,5.728,5.728,0,0,0,.236-1.6,7.274,7.274,0,0,0-.606-4.01c-.077-.135-.168-.3-.007-.455a1.537,1.537,0,0,1,.848-.135c1.471,0,2.943-.007,4.414,0,1.535.007,2.094.545,2.114,2.1.027,1.99.007,3.98.007,5.97,0,.872.007,1.741,0,2.613a1.165,1.165,0,0,1-.172.774,1.815,1.815,0,0,1-1.088.165q-7.126.015-14.253-.02a2.582,2.582,0,0,0-.923.077,2.308,2.308,0,0,0-1.9,2.549c-.013,1.886,0,3.771-.007,5.657a1.282,1.282,0,0,1-.189.949,1.785,1.785,0,0,1-.973.135q-4.884.005-9.771,0a3.136,3.136,0,0,0-.987.084,1,1,0,0,0-.007,1.933,3.042,3.042,0,0,0,.987.088q4.884,0,9.771,0a1.574,1.574,0,0,1,1.024.172,4.482,4.482,0,0,1,.013,2.519,1.433,1.433,0,0,1-1.013.189c-3.263.007-6.522,0-9.785,0a3.157,3.157,0,0,0-.99.084,1,1,0,0,0,0,1.929,3.054,3.054,0,0,0,.99.088q4.894,0,9.785,0a1.455,1.455,0,0,1,1.017.185,1.314,1.314,0,0,1,.152.781c.007,1.97,0,3.939,0,5.906a1.433,1.433,0,0,1-.138.785c-.293.276-.66.209-1.007.209-3.259.007-6.519,0-9.778,0a3.484,3.484,0,0,0-.99.074,1.012,1.012,0,0,0-.768,1.01.988.988,0,0,0,.771.943,3.074,3.074,0,0,0,.929.074H55.4a1.937,1.937,0,0,1,.976.125,1.006,1.006,0,0,1,.209.815c.01.768.347,2.97.367,3.737" transform="translate(-24.968 -29.668)" fill="#fefefe"/>
        <path id="Trazado_875402" data-name="Trazado 875402" d="M4.88,121.44" transform="translate(-4.247 -82.671)" fill="#fefefe"/>
        <path id="Trazado_875403" data-name="Trazado 875403" d="M107.783,107.923a.924.924,0,0,0-.96-1.044,2.391,2.391,0,0,1-2.04-2.316c-.02-.209-.02-.414-.02-.623v-26.5a3.589,3.589,0,0,1,.29-1.579,2,2,0,0,1,.966-1.091c-1.084.027-2.266.037-3.448-.01a.487.487,0,0,1-.38-.182,1.445,1.445,0,0,1,.848-.1h14.71c.249,0,.5-.013.747-.02a1.324,1.324,0,0,1,.764-.185c.882.007,1.768-.02,2.65.013,2.3-.024,4.606-.03,6.909,0,.478,0,.956-.024,1.431.01a2.506,2.506,0,0,1,2.455,2.616q.01,13.773,0,27.549a2.451,2.451,0,0,1-2.677,2.613c-3.97.017-7.936.02-11.906-.01a2.3,2.3,0,0,0-1.808.751c-2.226,2.269-4.485,4.505-6.731,6.754a3.132,3.132,0,0,1-.882.677h-.623a1.417,1.417,0,0,1-.3-.973" transform="translate(-68.793 -51.376)" fill="#ebe1c9"/>
        <path id="Trazado_875404" data-name="Trazado 875404" d="M3,64.075a21.056,21.056,0,0,0,.492-2.9A29.541,29.541,0,0,1,7.222,51.26c.32.327.219.741.219,1.125q.01,10.641,0,21.286c0,2.488,0,4.98,0,7.468,0,.343.077.714-.219,1a29.032,29.032,0,0,1-3.6-9.256c-.232-1.071-.367-2.158-.495-3.246-.013-.118.013-.256-.131-.316V68.075A1.293,1.293,0,0,0,3,67.2v-1a.96.96,0,0,0,0-.747v-1.37Z" transform="translate(-3 -36.121)" fill="#fba361"/>
        <path id="Trazado_875405" data-name="Trazado 875405" d="M3,98.58a.717.717,0,0,1,0,.872Z" transform="translate(-3 -67.508)" fill="#fec858"/>
        <path id="Trazado_875406" data-name="Trazado 875406" d="M3,93.4a.561.561,0,0,1,0,.747Z" transform="translate(-3 -64.072)" fill="#fec654"/>
        <path id="Trazado_875407" data-name="Trazado 875407" d="M15.54,61.31c.007-.249.017-.5.017-.747V31.178c0-.249-.01-.5-.017-.744q.01-4.571.02-9.141a1.2,1.2,0,0,1,.966-1.377c1.569-.1,3.141-.017,4.714-.047.293-.007.418.128.249.364a3.209,3.209,0,0,0-.367,2.037c0,1.347,0,2.69,0,4.037a1.347,1.347,0,0,1-.172.9,1.273,1.273,0,0,1-.653.182,1.166,1.166,0,0,0-1.084,1.03,6.264,6.264,0,0,0-.081,1.3V64.6a6.287,6.287,0,0,1-.02.872c-.027.192-.007.434-.3.465a30.342,30.342,0,0,1-3.266-4.626Z" transform="translate(-11.318 -15.295)" fill="#206360"/>
        <path id="Trazado_875408" data-name="Trazado 875408" d="M97.854,75.193h4.259a3.134,3.134,0,0,0-1.5,3.138q.03,13.081,0,26.158a2.852,2.852,0,0,0,1.882,3.007c-1.414.007-2.825.04-4.239.01a2.438,2.438,0,0,1-2.36-2.428c-.024-1.061-.017-2.118-.027-3.178a3.837,3.837,0,0,1,0-2.5V91.924a3.837,3.837,0,0,1,0-2.5V86.934a3.837,3.837,0,0,1,0-2.5c.007-2.266.007-4.529.024-6.795a2.4,2.4,0,0,1,1.963-2.448Z" transform="translate(-64.46 -51.994)" fill="#a39c8c"/>
        <path id="Trazado_875409" data-name="Trazado 875409" d="M25.233,79.852c.323-.178.162-.481.162-.721q.015-17.97.007-35.939c0-.209-.007-.414,0-.623.044-1.034.478-1.461,1.505-1.485.145,0,.29-.013.434-.02a4.043,4.043,0,0,1,2.751.04,1.531,1.531,0,0,0-1.013,1.589q.025,19.985.013,39.966v.825a25.818,25.818,0,0,1-3.862-3.63Z" transform="translate(-17.745 -29.212)" fill="#d8e6eb"/>
        <path id="Trazado_875410" data-name="Trazado 875410" d="M121.214,19.275l5.108.03c1.148.007,1.589.441,1.593,1.576.007,1.31.013,2.616.02,3.926a2.93,2.93,0,0,1,.185,1.155q-.005,5.439-.007,10.879a1.373,1.373,0,0,1-.2,1.01q-1.712,0-3.424,0c0-3.215.013-6.431,0-9.646,0-1.131-.461-1.559-1.609-1.559q-2.768,0-5.539,0c-.215.088-.357-.061-.492-.178a3.156,3.156,0,0,0-2.35-.788,1.648,1.648,0,0,1-1.088-.145,6.549,6.549,0,0,1-.135-2.2,1.37,1.37,0,0,0-.879-1.418c-.317-.189-.758.024-1.027-.316a4.025,4.025,0,0,1,.074-2.367,1.535,1.535,0,0,1,.906-.155c2.569,0,5.141,0,7.71-.007a3.256,3.256,0,0,1,1.152.205Z" transform="translate(-74.79 -14.769)" fill="#206360"/>
        <path id="Trazado_875411" data-name="Trazado 875411" d="M69.318,37.784c.6,0,1.2-.044,1.795.01a3.724,3.724,0,0,1,2.081,1.121,4.392,4.392,0,0,1,.795,2.875c-.03.788.01,1.579-.051,2.367a3.331,3.331,0,0,1-3.306,3.1q-11.308.02-22.616,0a3.314,3.314,0,0,1-3.3-3.1c-.071-1.034-.024-2.074-.03-3.114a3.875,3.875,0,0,1,.771-2.128,1.926,1.926,0,0,1,1.29-1.064,3.428,3.428,0,0,1,2.68-.027,2.923,2.923,0,0,1-.03,1.835c-.347.266-.758.168-1.141.178-1.013.034-1.434.438-1.451,1.451-.013.788-.013,1.579,0,2.367.02,1.057.471,1.522,1.532,1.532,2.013.02,4.027.007,6.04.007H69.82a6.461,6.461,0,0,0,.808-.02,1.23,1.23,0,0,0,1.2-1.209,23.89,23.89,0,0,0,0-2.987c-.04-.687-.407-.987-1.3-1.192-.1-.017-.2-.054-.3-.074-.36-.074-.875.135-1.024-.347a1.72,1.72,0,0,1,.111-1.589Z" transform="translate(-30.641 -27.036)" fill="#ebe1c9"/>
        <path id="Trazado_875412" data-name="Trazado 875412" d="M31.948,25.527c-.6,0-1.2-.044-1.795.013a3.7,3.7,0,0,0-2.081,1.121l-2.461.01-2.751-.04c0-1.845.013-3.69,0-5.535a2.092,2.092,0,0,1,.529-1.694H18.47a1.167,1.167,0,0,1,.724-.088q4.374-.02,8.751-.024a3.343,3.343,0,0,1,1.273-.2c1.283.01,2.562,0,3.845.007a1.793,1.793,0,0,1,.852.118c.374.374.222.848.232,1.283.024.956.01.956.943.983a1.277,1.277,0,0,1,.714.135.16.16,0,0,1,.037.2c-.418.269-.886.135-1.333.158-.374.02-.747,0-1.121.007a1.09,1.09,0,0,0-1.219,1.182c-.037.539,0,1.077-.017,1.616-.007.263.037.549-.2.751Z" transform="translate(-13.261 -14.782)" fill="#206360"/>
        <path id="Trazado_875413" data-name="Trazado 875413" d="M46.78,82.932H41.544c-.929,0-1.481-.461-1.495-1.226-.013-.788.549-1.266,1.515-1.266H51.975a1.335,1.335,0,0,1,1.508,1.226c.017.744-.609,1.266-1.532,1.266H46.777Z" transform="translate(-27.575 -55.476)" fill="#ebe1c9"/>
        <path id="Trazado_875414" data-name="Trazado 875414" d="M71.257,102.65v2.5q-5.631,0-11.263,0a1.294,1.294,0,0,1-1.29-.684,1.167,1.167,0,0,1,.1-1.29,1.365,1.365,0,0,1,1.256-.525c3.444.007,6.886,0,10.33,0,.29,0,.579,0,.872,0Z" transform="translate(-39.849 -70.208)" fill="#b5c3ce"/>
        <path id="Trazado_875415" data-name="Trazado 875415" d="M71.257,117.46v2.5q-5.631,0-11.263,0a1.294,1.294,0,0,1-1.29-.683,1.167,1.167,0,0,1,.1-1.29,1.365,1.365,0,0,1,1.256-.525c3.444.007,6.886,0,10.33,0,.29,0,.579,0,.872,0Z" transform="translate(-39.849 -80.031)" fill="#b5c3ce"/>
        <path id="Trazado_875416" data-name="Trazado 875416" d="M71.257,147.1v2.5q-5.631,0-11.263,0a1.294,1.294,0,0,1-1.29-.684,1.167,1.167,0,0,1,.1-1.29,1.365,1.365,0,0,1,1.256-.525c3.444.007,6.886,0,10.33,0,.29,0,.579,0,.872,0Z" transform="translate(-39.849 -99.691)" fill="#b5c3ce"/>
        <path id="Trazado_875417" data-name="Trazado 875417" d="M64.031,134.789H60.045c-.923,0-1.471-.471-1.475-1.242s.545-1.249,1.465-1.249q4.051,0,8.1,0c.953,0,1.451.485,1.414,1.333a1.191,1.191,0,0,1-1.343,1.155c-1.391.01-2.781,0-4.175,0Z" transform="translate(-39.86 -89.872)" fill="#b5c3ce"/>
        <path id="Trazado_875418" data-name="Trazado 875418" d="M62.37,161.911c.768,0,1.535-.007,2.3,0a1.252,1.252,0,1,1,0,2.492q-2.364.015-4.731,0a1.252,1.252,0,1,1,0-2.492C60.751,161.9,61.562,161.911,62.37,161.911Z" transform="translate(-39.859 -109.513)" fill="#b5c3ce"/>
        <path id="Trazado_875419" data-name="Trazado 875419" d="M41.982,102.658a6.608,6.608,0,0,1,.684,0,1.257,1.257,0,0,1,1.128,1.263,1.234,1.234,0,0,1-1.118,1.205,9.149,9.149,0,0,1-1.488,0,1.235,1.235,0,0,1-1.128-1.259,1.25,1.25,0,0,1,1.118-1.209,8.018,8.018,0,0,1,.8-.007Z" transform="translate(-27.581 -70.206)" fill="#8d9ca8"/>
        <path id="Trazado_875420" data-name="Trazado 875420" d="M41.9,119.942a6.854,6.854,0,0,1-.744,0,1.24,1.24,0,0,1,.027-2.468,10.837,10.837,0,0,1,1.364-.007,1.243,1.243,0,1,1-.027,2.485c-.205.01-.414,0-.62,0Z" transform="translate(-27.575 -80.022)" fill="#8d9ca8"/>
        <path id="Trazado_875421" data-name="Trazado 875421" d="M41.907,134.752a6.851,6.851,0,0,1-.744,0,1.252,1.252,0,0,1-1.114-1.273,1.239,1.239,0,0,1,1.131-1.2,10.837,10.837,0,0,1,1.364-.007,1.242,1.242,0,1,1-.017,2.485c-.205.01-.414,0-.62,0Z" transform="translate(-27.574 -89.846)" fill="#8d9ca8"/>
        <path id="Trazado_875422" data-name="Trazado 875422" d="M41.878,149.554a5.483,5.483,0,0,1-.744-.007,1.253,1.253,0,0,1-1.084-1.239,1.229,1.229,0,0,1,1.1-1.222,9.548,9.548,0,0,1,1.488-.007,1.229,1.229,0,0,1,1.145,1.242,1.249,1.249,0,0,1-1.162,1.232c-.246.024-.495,0-.744,0v-.007Z" transform="translate(-27.575 -99.661)" fill="#8d9ca8"/>
        <path id="Trazado_875423" data-name="Trazado 875423" d="M41.875,164.372a5.485,5.485,0,0,1-.744-.007,1.247,1.247,0,0,1-1.081-1.239,1.229,1.229,0,0,1,1.1-1.219,9.154,9.154,0,0,1,1.488,0,1.239,1.239,0,0,1-.02,2.471c-.246.024-.495,0-.744,0v-.007Z" transform="translate(-27.575 -109.492)" fill="#8d9ca8"/>
        <path id="Trazado_875424" data-name="Trazado 875424" d="M131.954,102.9c-.047-1.1.35-1.545,1.468-1.62a3.248,3.248,0,1,0-3.478-3.552c-.01.1,0,.209-.013.31a1.274,1.274,0,0,1-1.293,1.246,1.245,1.245,0,0,1-1.2-1.327,5.742,5.742,0,1,1,7.354,5.586c-.118.037-.236.077-.357.114a1.908,1.908,0,0,1-1.882.108,1.025,1.025,0,0,1-.6-.865Z" transform="translate(-85.539 -63.349)" fill="#fefefe"/>
        <path id="Trazado_875425" data-name="Trazado 875425" d="M160.773,49.154q.01-6.52.02-13.044a29.674,29.674,0,0,1,7.01,13.037q-3.515,0-7.034.01Z" transform="translate(-107.649 -26.072)" fill="#fba361"/>
        <path id="Trazado_875426" data-name="Trazado 875426" d="M140.817,123.763a1.629,1.629,0,0,0,2.007.842c.158-.03.316-.057.478-.084,0,1.182,0,2.367-.01,3.549a1.257,1.257,0,1,1-2.492-.013c0-1.431.01-2.862.017-4.3Z" transform="translate(-94.403 -84.21)" fill="#fffaed"/>
        <path id="Trazado_875427" data-name="Trazado 875427" d="M143.252,147.773a1.276,1.276,0,1,1-2.552-.027,1.3,1.3,0,0,1,1.259-1.286,1.323,1.323,0,0,1,1.293,1.316Z" transform="translate(-94.336 -99.266)" fill="#fffaed"/>
        <path id="Trazado_875428" data-name="Trazado 875428" d="M65.933,13.17a11.629,11.629,0,0,0-1.236.013c-.542.057-.67-.178-.64-.673.034-.576,0-1.152-.007-1.731a2.88,2.88,0,0,1,.542-2.973A3.957,3.957,0,0,1,68.027,6.3c2.737.051,5.478.024,8.215.01a5.058,5.058,0,0,1,2,.367c1.492.347,2.37,2.677,1.8,4.1-.007.8-.013,1.593-.02,2.391a2.5,2.5,0,0,1-1.684.114c-.3-.037-.35-.33-.36-.582a7.263,7.263,0,0,1,.071-1.852,2.389,2.389,0,0,0-.03-1.222A1.533,1.533,0,0,0,76.33,8.375q-4.268-.02-8.535,0A1.547,1.547,0,0,0,66.078,9.6a3.265,3.265,0,0,0-.027,1.34,3.844,3.844,0,0,1-.118,2.229Z" transform="translate(-43.364 -6.296)" fill="#ebe1c9"/>
        <path id="Trazado_875429" data-name="Trazado 875429" d="M108.385,11.534a7.893,7.893,0,0,0-.118-1.97A3.768,3.768,0,0,0,106.58,7.43a22.264,22.264,0,0,1,5.495,1.259,25.736,25.736,0,0,1,6.051,2.865c-3.249.027-6.495.067-9.744-.02Z" transform="translate(-71.705 -7.048)" fill="#fba361"/>
        <path id="Trazado_875430" data-name="Trazado 875430" d="M53.155,10.79a4.93,4.93,0,0,0-.542,2.973c-2,.091-4,.051-6,.02a25.318,25.318,0,0,1,6.545-2.993Z" transform="translate(-31.927 -9.277)" fill="#fba361"/>
        <path id="Trazado_875431" data-name="Trazado 875431" d="M87.671,30.409c-.007.145-.017.286-.017.431a1.232,1.232,0,0,0,1.205,1.391.3.3,0,0,1-.178.162,1.177,1.177,0,0,0-.835,1.182c-.024,1.414-.5,1.889-1.933,1.889q-4.788.005-9.579,0a12.66,12.66,0,0,0-1.923.094,1.846,1.846,0,0,1-1.152-.168,1.7,1.7,0,0,1-.9-1.7c0-1.589-.013-1.589,1.556-1.589h7.832a2.48,2.48,0,0,0,.862-.081,2.207,2.207,0,0,0,.529-.172.949.949,0,0,0,.515-1.037.911.911,0,0,0-.761-.8,3.785,3.785,0,0,0-.8-.04H73.516a1.651,1.651,0,0,1-.966-.145,4.187,4.187,0,0,1-.04-2.481,1.21,1.21,0,0,1,.875-.808,3.9,3.9,0,0,1,.99-.067c2.795,0,5.593-.074,8.384.03,1.3.047,2.6.047,3.892.152a1.342,1.342,0,0,1,1.007,1.458c-.007.768.01,1.539.013,2.306Z" transform="translate(-48.994 -19.66)" fill="#dbd7d7"/>
        <path id="Trazado_875432" data-name="Trazado 875432" d="M84.849,19.7q-5.975,0-11.953,0c-.455,0-.912.017-1.367.024-.593.168-1.185.387-1.761-.047a.819.819,0,0,0,0-.091,21.156,21.156,0,0,0-.114-2.956.825.825,0,0,1,.091-.657.461.461,0,0,1,.185.31c.192.734.192.737.987.741h9.747a1.159,1.159,0,0,0,1.209-.859.365.365,0,0,1,.148-.192,1.991,1.991,0,0,1,.054,1.273,13.883,13.883,0,0,0-.081,1.976c-.02.323.178.37.438.367.475-.007.953,0,1.428,0,.33.054.68-.108.993.108Z" transform="translate(-47.193 -12.72)" fill="#206360"/>
        <path id="Trazado_875433" data-name="Trazado 875433" d="M58.633,46.648a5.977,5.977,0,0,0,2.034.01H71.418c1.145,0,1.552-.418,1.556-1.579v-.125a1.2,1.2,0,0,1,1.209-1.35,1.532,1.532,0,0,1,1.586,1.69c.017.788.017,1.579,0,2.367a1.561,1.561,0,0,1-1.744,1.727H51.957a1.549,1.549,0,0,1-1.734-1.67c-.02-.811-.017-1.62,0-2.431A1.54,1.54,0,0,1,51.94,43.6c.354-.01.707,0,1.061,0,.253.222.192.529.205.811s-.01.579.017.869a1.087,1.087,0,0,0,1.226,1.168c1.034.024,2.067.01,3.1,0a2.482,2.482,0,0,1,1.084.2Z" transform="translate(-34.314 -31.037)" fill="#fefefe"/>
        <path id="Trazado_875434" data-name="Trazado 875434" d="M64.133,35.626c-1.451.007-2.9.024-4.354.01a1.2,1.2,0,0,1-1.256-1.256c-.024-.6-.017-1.2-.024-1.8V30.758c.007-.788.007-1.576.02-2.364A1.243,1.243,0,0,1,59.9,27.007c.828-.013,1.657-.017,2.485-.027.586.017,1.175.03,1.761.047a1.508,1.508,0,0,0-.774,1.552c.051.512.024,1.03.034,1.542-.125.205-.367.266-.535.418a1,1,0,0,0-.34,1.064.934.934,0,0,0,.811.68,4.572,4.572,0,0,0,.744.03q4.232,0,8.465,0c.323,0,.67-.074.946.192-.219.178-.478.1-.721.1-2.926.007-5.855.013-8.781-.007-.495,0-.684.141-.623.633a2.923,2.923,0,0,1,0,.747,1.567,1.567,0,0,0,.758,1.64Z" transform="translate(-39.813 -20.016)" fill="#989595"/>
        <path id="Trazado_875435" data-name="Trazado 875435" d="M82.229,13.285a1.18,1.18,0,0,1-1.34,1.269H70.859c-1.03,0-.875.118-.892-.9,0-.125-.01-.249-.017-.374a1.594,1.594,0,0,1,1.785-1.37q4.354-.005,8.707,0a1.594,1.594,0,0,1,1.785,1.37Z" transform="translate(-47.408 -10.022)" fill="#fba361"/>
        <path id="Trazado_875436" data-name="Trazado 875436" d="M80.9,38.7q-4.955,0-9.909-.007a1.2,1.2,0,1,1-.185-2.384c3.34,0,6.68-.007,10.02,0A1.183,1.183,0,0,1,82,38.045a1.061,1.061,0,0,1-1.1.657Z" transform="translate(-47.216 -26.205)" fill="#f0eeee"/>
      </g>
    </g>
  </g>
</svg>
