<svg xmlns="http://www.w3.org/2000/svg" width="110" height="106.428" viewBox="0 0 110 106.428"><g fill="#206360" transform="translate(-16.075 -23.862)"><path d="M87.086 79.218a.9.9 0 0 0-1.276 0l-4.589 4.588L61.773 64.34a7.94 7.94 0 0 0-11.2 0l-8.76 8.758a.902.902 0 0 0 1.275 1.276l8.762-8.758a6.13 6.13 0 0 1 8.644 0l19.45 19.466-4.571 4.568a.9.9 0 0 0 0 1.278l32.359 32.373a8.292 8.292 0 0 0 11.72-11.733Zm31.081 42.8a6.51 6.51 0 0 1-9.161 0L77.287 90.285l9.16-9.158 31.725 31.711a6.52 6.52 0 0 1-.005 9.179ZM34.723 85.572a.902.902 0 1 0-1.563.9l23.34 40.414a.902.902 0 1 0 1.563-.9ZM17.758 67.991a.901.901 0 1 0-1.562.9l35.187 60.951a.902.902 0 1 0 1.563-.9Z"/><path d="m61.268 86.652-5.86-1.719a.903.903 0 1 0-.509 1.732c6.16 1.794 5.87 1.755 6.114 1.755a.9.9 0 0 0 .254-1.769ZM28.91 60.677a.902.902 0 1 0 1.73-.511l-1.732-5.853a.902.902 0 1 0-1.731.511Zm25.238 15.808 3.523-.849a.902.902 0 0 0-.423-1.753l-3.518.852a.902.902 0 1 0 .422 1.753ZM50.2 93.318a.902.902 0 1 0-1.278 1.274l2.668 2.679a.903.903 0 0 0 1.28-1.274ZM20.975 66.645a.903.903 0 0 0 1.274-1.281l-2.669-2.655a.902.902 0 1 0-1.274 1.278Zm18.988-4.117a.9.9 0 0 0 .877-.692l.838-3.507a.902.902 0 0 0-1.755-.421l-.838 3.509a.9.9 0 0 0 .878 1.111m9.629 20.279-3.175-.849a.902.902 0 1 0-.466 1.743 29 29 0 0 0 3.409.879.9.9 0 0 0 .232-1.772ZM31.877 69.613a.903.903 0 1 0 1.744-.466l-.847-3.171a.902.902 0 1 0-1.744.464Zm15.527 6.268-1.943.513a.902.902 0 1 0 .461 1.745l1.943-.513a.902.902 0 0 0-.461-1.745m-5.047 10.866a.9.9 0 0 0 0 1.274l1.418 1.429a.903.903 0 1 0 1.281-1.272l-1.426-1.426a.9.9 0 0 0-1.273-.005M27.542 73.212a.902.902 0 0 0 1.274-1.276l-1.411-1.407a.902.902 0 1 0-1.274 1.278ZM38.3 70.771a.9.9 0 0 0 .872-.67l.507-1.921a.903.903 0 0 0-1.745-.462l-.507 1.921a.9.9 0 0 0 .873 1.132m75.992-39.537H83.038a.9.9 0 0 0-.9.9v17.964a.9.9 0 0 0 .9.9h7.408a.9.9 0 0 0 .69 0h23.156a.9.9 0 0 0 .9-.9V32.136a.9.9 0 0 0-.9-.9Zm-.9 17.961H92.734l8.044-9.968a.901.901 0 1 0-1.4-1.135l-8.958 11.1h-6.474V33.039h29.448v16.156Z"/><path d="M101.002 45.102a.9.9 0 0 0 .7-.335l5.658-7.016a.902.902 0 0 0-1.405-1.132l-5.654 7.017a.9.9 0 0 0 .701 1.466"/><path d="M125.172 42.316h-2.975V29.681a5.825 5.825 0 0 0-5.818-5.819H80.951a5.834 5.834 0 0 0-5.835 5.819v12.635h-2.974a.9.9 0 0 0-.9.9v9.83a.9.9 0 0 0 .9.9h2.973v12.64a5.834 5.834 0 0 0 5.835 5.819h35.428a5.825 5.825 0 0 0 5.818-5.819V53.951h2.975a.9.9 0 0 0 .9-.9v-9.83a.9.9 0 0 0-.899-.905m-52.127 9.83V44.12h2.07v8.026Zm47.349 14.439a4.02 4.02 0 0 1-4.014 4.014H80.951a4.027 4.027 0 0 1-4.03-4.014v-36.9a4.027 4.027 0 0 1 4.03-4.014h35.428a4.02 4.02 0 0 1 4.014 4.014v36.9Zm3.876-14.439h-2.072V44.12h2.072Z"/></g></svg>