<svg xmlns="http://www.w3.org/2000/svg" width="99.998" height="100" viewBox="0 0 99.998 100"><path fill="#206360" fill-rule="evenodd" d="M50.793 87.949c0-2.3-1.088-3.822-1.8-3.822s-1.8 1.525-1.8 3.822 1.084 3.824 1.8 3.824 1.8-1.526 1.8-3.824m3.03 0c0 3.844-2.123 6.854-4.834 6.854s-4.834-3.01-4.834-6.854 2.123-6.853 4.834-6.853 4.837 3.01 4.837 6.853Zm24.984-74.48c-.92-2.19-4.187-2.519-5.091-.6a2.64 2.64 0 0 0 1.531 3.352c2.21 1.044 4.446-.655 3.56-2.752m2.742 3.092a5.65 5.65 0 0 1-7.592 2.4c-4.758-2.245-4.54-8.693.272-10.144 4.714-1.417 9.37 3.384 7.319 7.744Zm-60.482 38.49a3.775 3.775 0 0 0-3.968-3.535 3.559 3.559 0 1 0 0 7.071 3.775 3.775 0 0 0 3.968-3.536m3.03 0a6.8 6.8 0 0 1-7 6.565 6.579 6.579 0 1 1 0-13.131 6.8 6.8 0 0 1 7 6.566m23.115-24.752c1.516.69 4-2.2 3.484-4.7-.475-2.311-2.907-1.272-3.913.939-.792 1.741-.411 3.38.429 3.761m3.945-8.671a4.59 4.59 0 0 1 2.507 3.359c.969 4.742-3.645 9.916-7.707 8.069-2.541-1.158-3.389-4.572-1.931-7.776s4.59-4.805 7.131-3.652m-4.9 25.121c-.272-.86-1.479-1.5-3.078-1.5a6.7 6.7 0 0 0-5.043 2.279c-2.017 2.6 1.268 4.193 4.588 3.143 2.555-.811 3.91-2.715 3.528-3.92Zm-2.612 6.806a10 10 0 0 1-3 .479c-5.351 0-7.849-4.562-4.9-8.367a9.1 9.1 0 0 1 4.454-2.98c4.05-1.282 7.977.1 8.943 3.148s-1.454 6.44-5.502 7.722Zm15.189 8.073c-.609-3.61-3.861-5.544-5.395-2.531-1.627 3.2.7 7.925 3.224 7.5a2.57 2.57 0 0 0 1.728-1.464 5.8 5.8 0 0 0 .442-3.507Zm-1.669 7.959a5.5 5.5 0 0 0 3.928-3.078 9.19 9.19 0 0 0-1.71-10.228 5.213 5.213 0 0 0-8.644 1.447 9.18 9.18 0 0 0 1.709 10.228 5.5 5.5 0 0 0 4.718 1.635Zm31.218-21.969c1.191 0 2.525-2.129 2.525-4.978s-1.334-4.978-2.525-4.978-2.525 2.128-2.525 4.978 1.333 4.978 2.525 4.978m0 3.031c-3.115 0-5.556-3.517-5.556-8.009s2.441-8.007 5.556-8.007 5.555 3.517 5.555 8.007-2.441 8.009-5.555 8.009m-12.194 4.833a2.7 2.7 0 1 0-2.669 3.1 2.915 2.915 0 0 0 2.669-3.1m3.031 0a5.715 5.715 0 1 1-5.7-6.132 5.936 5.936 0 0 1 5.7 6.132M60.173 31.528c0 3.938 2.946 7.143 6.566 7.143s6.565-3.204 6.565-7.143-2.945-7.142-6.565-7.142-6.566 3.204-6.566 7.142m-3.03 0c0-5.61 4.3-10.173 9.6-10.173s9.59 4.564 9.59 10.173-4.3 10.174-9.594 10.174-9.596-4.562-9.596-10.174m-16.74 41.127c0-3.064-3.2-5.556-7.142-5.556s-7.144 2.493-7.144 5.556 3.207 5.555 7.144 5.555 7.142-2.494 7.142-5.555m3.031 0c0 4.732-4.563 8.585-10.173 8.585s-10.174-3.852-10.174-8.585 4.563-8.587 10.174-8.587 10.173 3.853 10.173 8.587m30.735 8.373a6.132 6.132 0 1 0-6.133 6.133 6.14 6.14 0 0 0 6.133-6.133m3.03 0a9.163 9.163 0 1 1-9.163-9.163 9.174 9.174 0 0 1 9.163 9.163M37.95 12.337a2.817 2.817 0 1 0 2.812-2.67 2.745 2.745 0 0 0-2.812 2.67m-3.03 0a5.845 5.845 0 1 1 5.842 5.7 5.78 5.78 0 0 1-5.841-5.7ZM24.212 35.119c2.153.4 4.335-1.593 4.868-4.448.572-3.059-1-5.957-3.489-5.957-1.959 0-3.823 1.891-4.313 4.5-.532 2.853.784 5.5 2.934 5.9Zm-5.911-6.462c.841-4.5 4.606-7.58 8.4-6.871s6.2 4.944 5.357 9.44c-.827 4.43-4.55 7.589-8.4 6.871-3.794-.707-6.2-4.944-5.356-9.44ZM98.483 0H82.755a1.516 1.516 0 1 0 0 3.031h14.214v14.211a1.515 1.515 0 1 0 3.03 0V1.515A1.516 1.516 0 0 0 98.483 0m0 81.24a1.515 1.515 0 0 0-1.514 1.515v14.214H82.755a1.516 1.516 0 1 0 0 3.031h15.728a1.517 1.517 0 0 0 1.516-1.516V82.755a1.516 1.516 0 0 0-1.516-1.515M17.245 96.969H3.031V82.755a1.516 1.516 0 0 0-3.031 0v15.729A1.516 1.516 0 0 0 1.516 100h15.729a1.516 1.516 0 0 0 0-3.031M0 17.242V1.515A1.515 1.515 0 0 1 1.516-.001h15.729a1.516 1.516 0 0 1 0 3.031H3.031v14.212a1.516 1.516 0 1 1-3.031 0"/></svg>