<svg xmlns="http://www.w3.org/2000/svg" width="101.907" height="104.949" viewBox="0 0 101.907 104.949"><path d="M28.954,6.71A11.243,11.243,0,1,0,11.179,19.627,18.046,18.046,0,1,0,28.954,6.71ZM10.491,11.248A8.173,8.173,0,0,1,25.609,6.934a18.1,18.1,0,0,0-13.182,9.584A8.134,8.134,0,0,1,10.491,11.248ZM28.483,39.724A14.975,14.975,0,1,1,43.458,24.75,14.992,14.992,0,0,1,28.483,39.724Z" transform="translate(-7.42)" fill="#206360"/><path d="M65.927,328.052a11.266,11.266,0,0,0-11.386-6.706,18.059,18.059,0,0,0-19.234-12.588c-.051-.129-.1-.258-.158-.386a11.248,11.248,0,1,0-20.626,8.979h0a11.189,11.189,0,0,0,5.167,5.5,18.036,18.036,0,0,0-.315,5.854,1.536,1.536,0,1,0,3.052-.343,14.977,14.977,0,0,1,28.616-7.643c.191.439.356.885.5,1.334-.141.055-.282.11-.421.171a11.261,11.261,0,0,0-5.824,14.8,11.383,11.383,0,0,0,.926,1.707A14.995,14.995,0,0,1,24.5,334.46a1.536,1.536,0,0,0-2.629,1.588,18.055,18.055,0,0,0,26.379,5.006,11.251,11.251,0,0,0,17.673-13Zm-35.817-17.9a17.921,17.921,0,0,0-9.493,9.712,8.109,8.109,0,0,1-3.278-3.74h0a8.176,8.176,0,0,1,14.9-6.74A18.315,18.315,0,0,0,30.11,310.154Zm28.767,29.885a8.177,8.177,0,1,1,4.234-10.761A8.123,8.123,0,0,1,58.877,340.039Z" transform="translate(-12.324 -239.789)" fill="#206360"/><path d="M203.795,81.169a11.247,11.247,0,0,0-15.621-8.008,14.33,14.33,0,0,0-3.852-5.643,9.6,9.6,0,1,0-15.071-2.535,14.318,14.318,0,0,0-8.554,10.89,11.338,11.338,0,0,0-.9.874,18.778,18.778,0,0,0-6.462.308,1.536,1.536,0,1,0,.671,3,15.894,15.894,0,0,1,3.466-.381c.122,0,.243,0,.363.006a11.248,11.248,0,0,0,15.384,14.7c.025.358.04.72.04,1.085a15.78,15.78,0,0,1-28.738,9.014,11.252,11.252,0,0,0,0-18.022,15.762,15.762,0,0,1,3.644-3.746,1.535,1.535,0,1,0-1.813-2.479,18.833,18.833,0,0,0-4.528,4.733,11.25,11.25,0,1,0-1.782,21.519,11.381,11.381,0,0,0,1.778-.52,18.851,18.851,0,0,0,15.654,8.359c.592,0,1.178-.029,1.756-.082A14.276,14.276,0,1,0,175.9,99.462a18.815,18.815,0,0,0,.17-7.11,14.2,14.2,0,0,0,7.277-2.8,11.247,11.247,0,0,0,20.448-8.387Zm-64.372,22.3a8.177,8.177,0,1,1,6.371-9.65A8.187,8.187,0,0,1,139.422,103.47Zm37.022-49.376a6.541,6.541,0,1,1-5.1,7.72A6.546,6.546,0,0,1,176.445,54.093Zm8.245,59.436a11.2,11.2,0,0,1-22.407.164,18.941,18.941,0,0,0,12.709-11.263A11.218,11.218,0,0,1,184.69,113.53ZM174.866,88.89a8.177,8.177,0,1,1,1.187-6.145A8.122,8.122,0,0,1,174.866,88.89Zm3.548-.151a11.249,11.249,0,0,0-12.628-15.373,11.287,11.287,0,0,0-1.285.343,11.262,11.262,0,0,1,6.695-6.183,9.71,9.71,0,0,0,1.265,1,9.546,9.546,0,0,0,5.276,1.593,9.66,9.66,0,0,0,3.917-.83,11.2,11.2,0,0,1-3.24,19.452Zm16,2.7a8.182,8.182,0,0,1-8.781-4.026,14.191,14.191,0,0,0,3.3-11.2,8.177,8.177,0,1,1,5.48,15.23Z" transform="translate(-102.117 -40.457)" fill="#206360"/></svg>