<svg id="pinzas" xmlns="http://www.w3.org/2000/svg" width="54" height="54" viewBox="0 0 54 54">
  <path id="Trazado_899232" data-name="Trazado 899232" d="M54,27A27,27,0,1,1,27,0,27,27,0,0,1,54,27Zm0,0" fill="#fba361"/>
  <path id="Trazado_899233" data-name="Trazado 899233" d="M176.13,76.3l-25.1-25.1L147.876,81.77,138.609,83l-1.828,7.806,8.721,8.721A27.013,27.013,0,0,0,176.129,76.3Zm0,0" transform="translate(-122.355 -45.803)" fill="#fb8f3f" opacity="0.82"/>
  <path id="Trazado_899234" data-name="Trazado 899234" d="M143.28,79.837a6.6,6.6,0,0,0-3.842,1.229L137.423,51.2l-1.678.113-1.678-.113-2.015,29.863a6.642,6.642,0,1,0,2.8,5.5l.892-13.227.892,13.227a6.644,6.644,0,1,0,6.642-6.729ZM128.211,89.961a3.48,3.48,0,1,1,3.48-3.48A3.484,3.484,0,0,1,128.211,89.961Zm15.069,0a3.48,3.48,0,1,1,3.48-3.48A3.484,3.484,0,0,1,143.28,89.961Zm0,0" transform="translate(-108.745 -45.802)" fill="#fff"/>
  <path id="Trazado_899235" data-name="Trazado 899235" d="M263.451,79.837a6.6,6.6,0,0,0-3.842,1.229L257.594,51.2l-1.678.113h-.01V73.488l.01-.149.892,13.227a6.644,6.644,0,1,0,6.642-6.729Zm0,10.124a3.48,3.48,0,1,1,3.48-3.48A3.484,3.484,0,0,1,263.451,89.961Zm0,0" transform="translate(-228.916 -45.802)" fill="#e9edf5"/>
</svg>
