<svg xmlns="http://www.w3.org/2000/svg" width="100.962" height="92.415" viewBox="0 0 100.962 92.415"><path fill="#fba361" d="M95.295 48.387a5.673 5.673 0 0 0 5.667-5.667v-2.471a2.62 2.62 0 0 0-2.62-2.619H71.056a27.14 27.14 0 0 0 15.623-24.549v-7.38a5.71 5.71 0 0 0-5.7-5.7H35.618a1.479 1.479 0 1 0 0 2.958h45.36a2.747 2.747 0 0 1 2.744 2.744v7.38A24.173 24.173 0 0 1 59.575 37.23H40.956A24.173 24.173 0 0 1 16.81 13.082v-7.38a2.747 2.747 0 0 1 2.744-2.744h8.966a1.479 1.479 0 1 0 0-2.958h-8.967a5.71 5.71 0 0 0-5.7 5.7v7.38a27.14 27.14 0 0 0 15.622 24.55H2.62A2.62 2.62 0 0 0 0 40.249v2.471a5.673 5.673 0 0 0 5.667 5.667h16.18v4.8h-5.131A16.735 16.735 0 0 0 0 69.899V81.92a4.053 4.053 0 0 0 4.048 4.048h3.819v3.422a3.03 3.03 0 0 0 3.025 3.025H21a3.03 3.03 0 0 0 3.025-3.025v-3.422h52.9v3.422a3.03 3.03 0 0 0 3.025 3.025h10.12a3.03 3.03 0 0 0 3.025-3.025v-3.422h3.819a4.053 4.053 0 0 0 4.048-4.048V69.899a16.735 16.735 0 0 0-16.716-16.716h-5.131v-4.8ZM2.958 42.72v-2.132H98v2.132a2.71 2.71 0 0 1-2.705 2.71H5.667a2.71 2.71 0 0 1-2.709-2.71m18.114 46.67a.067.067 0 0 1-.067.067H10.892a.067.067 0 0 1-.067-.067v-3.422h10.247Zm69.065 0a.067.067 0 0 1-.067.067H79.957a.067.067 0 0 1-.067-.067v-3.422h10.247ZM98 69.899V81.92a1.09 1.09 0 0 1-1.09 1.09H4.048a1.09 1.09 0 0 1-1.09-1.09V69.899a13.774 13.774 0 0 1 13.758-13.758h67.53A13.774 13.774 0 0 1 98 69.899M76.157 53.183H24.8v-4.8h51.357Z"/><path fill="#fba361" d="M56.727 78.758h26.559a3.067 3.067 0 0 0 3.063-3.063V64.758a3.066 3.066 0 0 0-3.063-3.063H77.76a1.479 1.479 0 0 0 0 2.958h5.526a.105.105 0 0 1 .105.105v10.94a.105.105 0 0 1-.105.105H56.727a.105.105 0 0 1-.105-.105v-10.94a.105.105 0 0 1 .105-.105h14.13a1.479 1.479 0 1 0 0-2.958h-14.13a3.066 3.066 0 0 0-3.063 3.063v10.94a3.067 3.067 0 0 0 3.063 3.06m-42.113-14v10.94a3.066 3.066 0 0 0 3.063 3.063h26.559a3.066 3.066 0 0 0 3.063-3.063v-10.94a3.066 3.066 0 0 0-3.063-3.063H17.677a3.066 3.066 0 0 0-3.063 3.063m2.958 0a.105.105 0 0 1 .105-.105h26.559a.105.105 0 0 1 .105.105v10.94a.105.105 0 0 1-.105.105H17.677a.105.105 0 0 1-.105-.105z"/><path fill="#fba361" d="M61.564 68.291a1.479 1.479 0 1 0 0 2.958h4.739a1.479 1.479 0 1 0 0-2.958Zm11.924 2.961h4.744a1.479 1.479 0 1 0 0-2.958h-4.739a1.479 1.479 0 0 0 0 2.958Zm-38.829 0h4.739a1.479 1.479 0 1 0 0-2.958h-4.739a1.479 1.479 0 1 0 0 2.958m-11.925 0h4.739a1.479 1.479 0 0 0 0-2.958h-4.739a1.479 1.479 0 0 0 0 2.958"/></svg>