<svg xmlns="http://www.w3.org/2000/svg" width="79.446" height="95.873" viewBox="0 0 79.446 95.873"><path d="M233.392,219.74v-6.3a1.4,1.4,0,0,0-2.809,0v6.3a5.533,5.533,0,0,0,0,10.7v.938a1.4,1.4,0,1,0,2.809,0v-.938a5.533,5.533,0,0,0,0-10.7Zm-1.4,8.075a2.724,2.724,0,1,1,2.723-2.724A2.727,2.727,0,0,1,231.987,227.815Z" transform="translate(-192.264 -172.335)" fill="#fba361"/><path d="M167.048,172.295a20.494,20.494,0,1,0,20.494,20.494A20.515,20.515,0,0,0,167.048,172.295Zm16.243,21.9h1.387a17.549,17.549,0,0,1-1.662,6.193l-1.2-.692a1.4,1.4,0,1,0-1.4,2.432l1.194.69a17.83,17.83,0,0,1-4.532,4.532l-.69-1.195a1.4,1.4,0,0,0-2.432,1.4l.692,1.2a17.548,17.548,0,0,1-6.193,1.661v-1.387a1.4,1.4,0,1,0-2.809,0v1.387a17.55,17.55,0,0,1-6.193-1.661l.692-1.2a1.4,1.4,0,0,0-2.432-1.4l-.69,1.195a17.83,17.83,0,0,1-4.532-4.532l1.195-.69a1.4,1.4,0,1,0-1.4-2.432l-1.2.692a17.548,17.548,0,0,1-1.662-6.193h1.387a1.4,1.4,0,1,0,0-2.809h-1.387a17.548,17.548,0,0,1,1.662-6.193l1.2.692a1.4,1.4,0,1,0,1.4-2.432l-1.195-.69a17.834,17.834,0,0,1,4.532-4.532l.69,1.195a1.4,1.4,0,1,0,2.432-1.4l-.692-1.2a17.548,17.548,0,0,1,6.193-1.661v1.387a1.4,1.4,0,1,0,2.809,0v-1.387a17.548,17.548,0,0,1,6.193,1.661l-.692,1.2a1.4,1.4,0,1,0,2.432,1.4l.69-1.195a17.83,17.83,0,0,1,4.532,4.532l-1.194.69a1.4,1.4,0,1,0,1.4,2.432l1.2-.692a17.548,17.548,0,0,1,1.662,6.193h-1.387a1.4,1.4,0,1,0,0,2.809Z" transform="translate(-127.325 -140.032)" fill="#fba361"/><path d="M46.585,8.044v.345a7.564,7.564,0,0,0,7.556,7.556H77.459v8.031a29.474,29.474,0,0,0-23.3,28.781V78.828a2.941,2.941,0,0,0-1.371,2.484v2.3H51.728a3.168,3.168,0,0,0-3.165,3.165v5.929a3.168,3.168,0,0,0,3.165,3.165h63.72a3.168,3.168,0,0,0,3.165-3.165V86.78a3.168,3.168,0,0,0-3.165-3.165h-1.064v-2.3a2.941,2.941,0,0,0-1.371-2.484V64.155a1.4,1.4,0,0,0-2.809,0V78.368H56.972V52.757a26.616,26.616,0,0,1,53.233,0V57.6a1.4,1.4,0,0,0,2.809,0V52.757a29.475,29.475,0,0,0-23.3-28.781V15.945h23.319a7.564,7.564,0,0,0,7.556-7.556V8.044a2.951,2.951,0,0,0,2.719-2.937V2.949A2.952,2.952,0,0,0,120.362,0h-33.5a1.4,1.4,0,0,0,0,2.809h33.5a.14.14,0,0,1,.14.14V5.107a.14.14,0,0,1-.14.14H46.814a.14.14,0,0,1-.14-.14V2.949a.14.14,0,0,1,.14-.14h33.5a1.4,1.4,0,1,0,0-2.809h-33.5a2.952,2.952,0,0,0-2.949,2.949V5.107a2.951,2.951,0,0,0,2.719,2.937Zm68.864,78.38a.356.356,0,0,1,.356.356v5.929a.356.356,0,0,1-.356.356H51.728a.356.356,0,0,1-.356-.356V86.78a.356.356,0,0,1,.356-.356Zm-4-5.246a.134.134,0,0,1,.128.133v2.3H55.6v-2.3a.135.135,0,0,1,.135-.135h55.712ZM86.908,23.519a29.617,29.617,0,0,0-6.641,0V15.945h6.641ZM49.393,8.056h68.39v.333a4.752,4.752,0,0,1-4.747,4.747H54.14a4.752,4.752,0,0,1-4.747-4.747Z" transform="translate(-43.865 0)" fill="#fba361"/></svg>