<svg xmlns="http://www.w3.org/2000/svg" width="85" height="81.633" viewBox="0 0 85 81.633"><path d="M126.5,151.705c-11.2,0-21.761-2.575-29.723-7.254a29.821,29.821,0,0,1-9.257-8.078,16.8,16.8,0,0,1,0-20.581,29.823,29.823,0,0,1,9.257-8.079c7.969-4.675,18.521-7.254,29.723-7.254s21.761,2.575,29.723,7.254a29.823,29.823,0,0,1,9.257,8.079,16.808,16.808,0,0,1,0,20.584,29.821,29.821,0,0,1-9.257,8.078C148.261,149.131,137.7,151.705,126.5,151.705Zm0-47.972c-10.625,0-20.6,2.414-28.068,6.8-7.2,4.224-11.162,9.747-11.162,15.551s3.964,11.326,11.162,15.551c7.471,4.385,17.443,6.8,28.068,6.8s20.6-2.415,28.068-6.8c7.2-4.225,11.162-9.748,11.162-15.551s-3.964-11.327-11.162-15.551C147.1,106.147,137.125,103.733,126.5,103.733Z" transform="translate(-84 -100.46)" fill="#206360"/><path d="M193.64,211.242c-9.72,0-19.144-2.26-25.857-6.2a23.105,23.105,0,0,1-6.507-5.4,9.395,9.395,0,0,1,0-12.756,23.071,23.071,0,0,1,6.507-5.4c6.712-3.94,16.142-6.2,25.857-6.2s19.144,2.259,25.857,6.2a23.088,23.088,0,0,1,6.507,5.4,9.395,9.395,0,0,1,0,12.756,23.088,23.088,0,0,1-6.507,5.4c-6.712,3.935-16.137,6.2-25.857,6.2Zm0-32.692c-9.156,0-17.981,2.1-24.2,5.749-4.627,2.717-7.389,6.066-7.389,8.963s2.758,6.246,7.389,8.962c6.221,3.654,15.047,5.75,24.2,5.75s17.981-2.1,24.2-5.75c4.627-2.716,7.389-6.065,7.389-8.962s-2.758-6.246-7.389-8.963C211.621,180.645,202.8,178.549,193.64,178.549Z" transform="translate(-151.14 -167.636)" fill="#206360"/><path d="M132.838,385.524H120.415a19.012,19.012,0,0,1-8.616-2.058c-7.836-4-14.589-11.05-19.53-20.381a73.388,73.388,0,0,1-8.1-32.284v-.019c-.018-.715-.028-1.421-.028-2.109a1.635,1.635,0,0,1,3.269,0c0,.665.009,1.352.027,2.043v.016c.595,22.554,10.74,42.112,25.847,49.831a15.745,15.745,0,0,0,7.13,1.7h12.423a15.755,15.755,0,0,0,7.151-1.708c15.037-7.695,25.424-27.958,25.847-50.421v-.061q.006-.409.009-.817a1.635,1.635,0,0,1,1.635-1.622h.012a1.635,1.635,0,0,1,1.621,1.648c0,.3-.006.595-.011.89v.057a73.639,73.639,0,0,1-7.985,32.622c-4.948,9.445-11.739,16.574-19.64,20.617a19.034,19.034,0,0,1-8.638,2.057Z" transform="translate(-84.126 -303.892)" fill="#206360"/></svg>