<svg xmlns="http://www.w3.org/2000/svg" width="112" height="112" viewBox="0 0 112 112"><defs><filter id="a" width="112" height="112" x="0" y="0" filterUnits="userSpaceOnUse"><feOffset dy="3"/><feGaussianBlur result="b" stdDeviation="3"/><feFlood flood-opacity=".161"/><feComposite in2="b" operator="in"/><feComposite in="SourceGraphic"/></filter></defs><g transform="translate(-276 -4219)"><g filter="url(#a)" transform="translate(276 4219)"><circle cx="47" cy="47" r="47" fill="#fff" transform="translate(9 6)"/></g><path fill="#a39c8c" d="m314.833 4263.908-1.203 3.852-9.47 8.434a.9.9 0 0 0-.255.4l-3.967 12.686a.88.88 0 0 0 .841 1.145h6.661a6.18 6.18 0 0 1 3.243 3.335l.015.037a.886.886 0 0 0 1.635 0l.015-.036a6.18 6.18 0 0 1 3.243-3.334h18.865a.882.882 0 1 0 0-1.763h-11.031l3.414-10.923h12.244l3.415 10.919h-3.347a.882.882 0 0 0 0 1.763h4.546a.9.9 0 0 0 .582-.219l15.505-13.623a.88.88 0 0 0 .26-.925l-3.966-12.689a.89.89 0 0 0-.842-.62h-5.9l-3.768-12.048a.89.89 0 0 0-.852-.639h-13.535a.88.88 0 0 0-.582.219l-7.753 6.812a.882.882 0 1 0 1.164 1.325l7.5-6.592h10.871l-3.587 3.152a6.2 6.2 0 0 1-.861-1.5.882.882 0 0 0-1.637 0l-.015.036a6.24 6.24 0 0 1-3.4 3.419.886.886 0 0 0-.037 1.647l.037.015a6 6 0 0 1 1.118.6l-5.12 4.5h-10.863l2.134-1.875a.882.882 0 0 0-1.164-1.325l-3.886 3.414a1 1 0 0 0-.267.41Zm24.566 12.062h-3.874l13.5-11.86h3.873Zm-2.283-20.71a8 8 0 0 0 2.083 2.092 8 8 0 0 0-2.083 2.093 8 8 0 0 0-2.082-2.092 8 8 0 0 0 2.082-2.093m-1.8 4.72a6.2 6.2 0 0 1 .967 1.622l.015.038a.88.88 0 0 0 .817.552.88.88 0 0 0 .817-.55l.016-.038a6.24 6.24 0 0 1 3.4-3.418l.037-.015a.886.886 0 0 0 .005-1.63l-.073-.03a6 6 0 0 1-1.248-.7l4.22-3.708 3.391 10.849-14.064 12.346-3.389-10.849Zm-6.747 5.067 3.412 10.923H312.91l3.414-10.923Zm-15.96 5.982-1.546 4.941h-4Zm-1.093 20.574a8 8 0 0 0-2.05-2.06 8 8 0 0 0 2.05-2.06 8 8 0 0 0 2.051 2.06 8 8 0 0 0-2.051 2.06m4.076-2.942a6.18 6.18 0 0 1-3.257-3.366.882.882 0 0 0-1.637 0l-.015.037a6.18 6.18 0 0 1-3.243 3.328h-5.461l3.415-10.927h12.244l3.414 10.927zm6.647-2.115-2.753-8.808h5.506Zm21.9 1.44-3.396-10.85 13.349-11.73.707-.621 3.391 10.849Z"/></g></svg>