<svg xmlns="http://www.w3.org/2000/svg" width="102.551" height="91" viewBox="0 0 102.551 91"><path fill="#fba361" d="M101.05 59.704a1.5 1.5 0 0 0 1.5-1.5v-2.476a5.573 5.573 0 0 0-5.567-5.567h-7.549v-1.6a5.134 5.134 0 0 0-5.128-5.128h-9.158a5.134 5.134 0 0 0-5.128 5.124v1.6h-7.55a5.573 5.573 0 0 0-5.57 5.571v18.739a5.5 5.5 0 0 0 .629 2.566H44.314v-29a9.82 9.82 0 0 0 7.82-4.165l16.2-23.05a3.97 3.97 0 0 0-.153-4.747 44.7 44.7 0 0 0-10.987-9.644A42.16 42.16 0 0 0 34.6 0a42.2 42.2 0 0 0-20.51 5.211 1.5 1.5 0 1 0 1.442 2.632A39.24 39.24 0 0 1 34.6 3.001a40.1 40.1 0 0 1 31.244 14.953.95.95 0 0 1 .035 1.139l-16.2 23.05a6.82 6.82 0 0 1-5.575 2.9H25.1a6.82 6.82 0 0 1-5.575-2.9L3.323 19.093a.95.95 0 0 1 .035-1.139 40.5 40.5 0 0 1 6.53-6.387 1.5 1.5 0 0 0-1.851-2.36 43.6 43.6 0 0 0-7.016 6.86 3.97 3.97 0 0 0-.153 4.747l16.2 23.05a9.82 9.82 0 0 0 7.82 4.165v29H3.017A3.02 3.02 0 0 0 0 80.05v7.933A3.02 3.02 0 0 0 3.017 91h96.517a3.02 3.02 0 0 0 3.017-3.017V80.05a3.01 3.01 0 0 0-1.073-2.3 5.54 5.54 0 0 0 1.073-3.28v-8.572a1.5 1.5 0 0 0-3 0v8.569a2.57 2.57 0 0 1-2.566 2.566H62.47a2.57 2.57 0 0 1-2.57-2.566V55.728a2.57 2.57 0 0 1 2.57-2.561h34.514a2.57 2.57 0 0 1 2.566 2.566v2.475a1.5 1.5 0 0 0 1.5 1.5Zm-1.516 20.33a.016.016 0 0 1 .016.016v7.933a.016.016 0 0 1-.016.016H3.017A.016.016 0 0 1 3 87.983V80.05a.016.016 0 0 1 .016-.016h31.116a1.5 1.5 0 1 0 0-3h-6.243V48.041h13.424v29.015a1.5 1.5 0 0 0 .247 2.979ZM73.021 48.557a2.13 2.13 0 0 1 2.127-2.127h9.158a2.13 2.13 0 0 1 2.127 2.127v1.6H73.021Z"/><path fill="#fba361" d="M22.59 35.543a3.77 3.77 0 0 0 2.746 1.87c.059.008 17.665.038 17.665.038a3.77 3.77 0 0 0 3.271-1.9l7.624-13.426a5.317 5.317 0 0 0-1.853-7.192c-3.85-2.354-9.848-5.484-17.454-5.484-7.735 0-13.8 3.207-17.693 5.619a5.33 5.33 0 0 0-1.84 7.177Zm20.412-1.093s-17.207 0-17.24-.007a.76.76 0 0 1-.56-.379l-.689-1.216a12.344 12.344 0 0 1 19.88-.068l-.73 1.285a.76.76 0 0 1-.661.385m-1.891-8.162a15 15 0 0 0-2.173-.842l4.462-3.4Zm-22.634-8.674c5.688-3.526 10.808-5.169 16.112-5.169 6.849 0 12.348 2.878 15.889 5.044a2.33 2.33 0 0 1 .809 3.15l-5.3 9.339a15.4 15.4 0 0 0-2.3-2.131l4.061-7.534a2.229 2.229 0 0 0-3.314-2.83l-9.581 7.309c-.123 0-.245-.006-.368-.006a15.26 15.26 0 0 0-11.558 5.249l-5.261-9.275a2.34 2.34 0 0 1 .81-3.147Z"/></svg>