<svg xmlns="http://www.w3.org/2000/svg" width="82" height="82.001" viewBox="0 0 82 82.001"><g fill="#206360" transform="translate(-1 -1)"><path d="m38.258 73.514-1.87 1.87a7.935 7.935 0 0 0 11.223 0l-1.87-1.87a5.417 5.417 0 0 1-7.483 0M8.935 16.871H6.29a10.593 10.593 0 0 0 10.581 10.581v-2.646a7.943 7.943 0 0 1-7.936-7.935m63.484 2.645h2.645a9.27 9.27 0 0 0-9.258-9.258v2.645a6.62 6.62 0 0 1 6.613 6.613"/><path d="M68.452 56.548a5.29 5.29 0 1 0-4.394-8.23l-15.534-5.436a7 7 0 0 0 .089-.882 6.57 6.57 0 0 0-1.1-3.641l8.3-8.3a14.621 14.621 0 1 0-1.748-1.992l-8.421 8.422a6.6 6.6 0 0 0-2.318-.968v-9.58a5.29 5.29 0 1 0-2.645 0v9.579a6.6 6.6 0 0 0-2.318.968l-9.38-9.38a15.92 15.92 0 1 0-1.871 1.87l9.381 9.381a6.56 6.56 0 0 0-1.1 3.64c0 .066.017.127.02.192l-11.239 2.645a5.264 5.264 0 1 0 .62 2.572l11.219-2.64a6.63 6.63 0 0 0 4.663 3.712v8.137a13.226 13.226 0 1 0 2.645 0v-8.136a6.6 6.6 0 0 0 4.33-3.1L63.2 50.824c-.012.144-.044.284-.044.434a5.3 5.3 0 0 0 5.29 5.29Zm-48.936-6.613a2.645 2.645 0 1 1 2.645-2.645 2.65 2.65 0 0 1-2.645 2.645m46.29-42.322a11.9 11.9 0 1 1-11.9 11.9 11.917 11.917 0 0 1 11.9-11.9M39.355 20.839A2.645 2.645 0 1 1 42 23.484a2.65 2.65 0 0 1-2.645-2.645M16.871 30.1A13.226 13.226 0 1 1 30.1 16.871 13.24 13.24 0 0 1 16.871 30.1m35.71 39.677A10.581 10.581 0 1 1 42 59.194a10.593 10.593 0 0 1 10.581 10.58ZM42 45.968A3.968 3.968 0 1 1 45.968 42 3.973 3.973 0 0 1 42 45.968m26.452 2.645a2.645 2.645 0 1 1-2.645 2.645 2.65 2.65 0 0 1 2.645-2.645M11.58 64.484a7.935 7.935 0 1 0 7.935 7.935 7.943 7.943 0 0 0-7.935-7.935m0 13.226a5.29 5.29 0 1 1 5.29-5.29 5.3 5.3 0 0 1-5.29 5.29m62.162-15.871A9.258 9.258 0 1 0 83 71.097a9.27 9.27 0 0 0-9.258-9.258m0 15.871a6.613 6.613 0 1 1 6.613-6.613 6.62 6.62 0 0 1-6.613 6.613"/></g></svg>