<svg xmlns="http://www.w3.org/2000/svg" width="88.901" height="115.938" viewBox="0 0 88.901 115.938"><g fill="#466573" transform="translate(-59.698)"><path d="M141.43 9.544h-7.093V4.979A4.984 4.984 0 0 0 129.358 0h-20.8a5 5 0 0 0-1.328.18L63.349 12.322a4.99 4.99 0 0 0-3.651 4.8V20.9a4.985 4.985 0 0 0 4.979 4.979h41.437a.45.45 0 0 1 .45.45v12.56H64.677a4.985 4.985 0 0 0-4.977 4.975v3.889a4.975 4.975 0 0 0 3.392 4.719l34.655 11.653v30.888a5.137 5.137 0 0 0 5.131 5.131h3.686v13.529a2.265 2.265 0 0 0 2.264 2.264h23.244a2.264 2.264 0 0 0 2.264-2.264v-13.529h2.456a5.137 5.137 0 0 0 5.131-5.131V79.725a2.264 2.264 0 0 0-4.529 0v15.288a.6.6 0 0 1-.6.6h-7.272a.6.6 0 0 1-.6-.6v-51a.6.6 0 0 1 .6-.6h7.272a.6.6 0 0 1 .6.6v15.79a2.264 2.264 0 0 0 4.529 0V44.017a5.137 5.137 0 0 0-5.131-5.131h-2.456v-15h7.093a7.17 7.17 0 0 0 0-14.34Zm-39.154 85.469V62.5a2.26 2.26 0 0 0-1.543-2.146l-36.2-12.17a.45.45 0 0 1-.307-.427v-3.893a.45.45 0 0 1 .45-.45h46.569a.61.61 0 0 1 .6.6v51a.61.61 0 0 1-.6.6h-8.367a.6.6 0 0 1-.602-.601m27.532 16.4h-18.715v-11.269a5.2 5.2 0 0 0 5.284-5.131v-51a5.2 5.2 0 0 0-5.284-5.132V26.326a4.984 4.984 0 0 0-4.979-4.979H64.677a.45.45 0 0 1-.45-.45V17.12a.45.45 0 0 1 .33-.434l43.881-12.141a.5.5 0 0 1 .12-.016h20.8a.45.45 0 0 1 .45.45v4.565h-7.158a2.264 2.264 0 0 0 0 4.529h7.158v5.282h-4.017a2.264 2.264 0 0 0 0 4.529h4.017v5.282h-7.158a2.264 2.264 0 0 0 0 4.529h7.158v5.191h-.287a5.137 5.137 0 0 0-5.131 5.131v51a5.137 5.137 0 0 0 5.131 5.131h.287zm11.622-92.059h-7.093v-5.282h7.093a2.641 2.641 0 1 1 0 5.282"/><path d="M141.543 68.258a2.264 2.264 0 1 0-.361 2.934 2.28 2.28 0 0 0 .361-2.934"/></g></svg>