<svg xmlns="http://www.w3.org/2000/svg" width="116" height="86.094" viewBox="0 0 116 86.094"><path fill="#466573" d="m115.336 23.32-9.062-9.062a2.266 2.266 0 0 0-3.2 0L62.293 55.039a2.3 2.3 0 0 0-.547.886l-4.531 13.594a2.266 2.266 0 0 0 2.866 2.866l13.594-4.531a2.3 2.3 0 0 0 .886-.547l40.781-40.781a2.265 2.265 0 0 0-.006-3.206M72.953 62.499l-5.858-5.858 26.249-26.247 5.858 5.858Zm-8.072-1.664 3.878 3.878-5.817 1.939Zm40.455-30.718-5.858-5.858 5.195-5.195 5.858 5.858ZM29.453 0H2.266A2.266 2.266 0 0 0 0 2.266v81.562a2.266 2.266 0 0 0 2.266 2.266h27.187a2.266 2.266 0 0 0 2.266-2.266V2.266A2.266 2.266 0 0 0 29.453 0M4.531 4.531h4.531v77.031H4.531Zm9.062 77.031V4.531h13.594v4.531h-6.8a2.266 2.266 0 0 0 0 4.531h6.8v11.329h-4.531a2.266 2.266 0 0 0 0 4.531h4.531v11.328h-6.8a2.266 2.266 0 0 0 0 4.531h6.8V56.64h-4.531a2.266 2.266 0 0 0 0 4.531h4.531V72.5h-6.8a2.266 2.266 0 0 0 0 4.531h6.8v4.531Zm37.61-77.031a2.266 2.266 0 0 0 0-4.531h-9.062a2.266 2.266 0 0 0 0 4.531h2.266v77.031h-2.266a2.266 2.266 0 0 0 0 4.531h9.063a2.266 2.266 0 0 0 0-4.531h-2.27V4.531Z"/></svg>