<svg xmlns="http://www.w3.org/2000/svg" width="90.852" height="90.79" viewBox="0 0 90.852 90.79"><path fill="#206360" d="m42.837 60.288 4.023 4.023a1.52 1.52 0 0 0 2.155 0l2.393-2.391 6.078 6.079c1.588 1.588 4.424 5.475 4.64 6.81a11.24 11.24 0 0 0 3.27 6.1l6.5 6.5a11.45 11.45 0 0 0 8.094 3.378 10.73 10.73 0 0 0 7.116-2.651 10.88 10.88 0 0 0 3.738-7.9 11 11 0 0 0-3.208-8.113l-6.73-6.731a11.24 11.24 0 0 0-6.106-3.27c-1.334-.216-5.222-3.052-6.81-4.641l-6.079-6.079 2.393-2.393a1.52 1.52 0 0 0 0-2.154l-4.021-4.023a1.524 1.524 0 0 0-2.155 0l-3.781 3.788-4.993-4.99a8.47 8.47 0 0 0-1.7-9.494L15.96.447a1.52 1.52 0 0 0-2.154 0L1.143 13.111l-.7.7a1.524 1.524 0 0 0 0 2.155L32.134 47.65a8.44 8.44 0 0 0 9.5 1.707l4.991 4.99-3.786 3.786a1.52 1.52 0 0 0 0 2.154Zm42.65 13.992a7.925 7.925 0 0 1-.387 11.57 8.11 8.11 0 0 1-11.053-.591l-6.5-6.5a10 10 0 0 1-.972-1.132l4.445-4.445 9.46 9.46 2.155-2.155-9.457-9.467 4.447-4.445a10 10 0 0 1 1.131.971Zm-11.164-9.148c.125.02.242.053.365.08l-9.476 9.469c-.026-.121-.059-.238-.079-.363-.4-2.5-4.091-7.077-5.493-8.477l-6.079-6.078 6.2-6.2 6.079 6.078c1.4 1.4 5.975 5.088 8.48 5.494ZM48.778 52.194l-4.612-4.612 3.417-3.417 4.612 4.612ZM28.072 39.279h18.879a5.4 5.4 0 0 1-.748 1.8 5.5 5.5 0 0 1-.707.87l-.174.174h-14.4Zm18.666-3.046H25.026l-2.845-2.846H44.6l.9.9a5.4 5.4 0 0 1 1.241 1.945ZM23.873 12.668H5.9L8.743 9.82h12.285Zm3.046 3.046 2.843 2.843H7.351l-2.846-2.843Zm5.892 5.892 2.846 2.846H13.242L10.4 21.606Zm5.889 5.892 2.846 2.846H19.134l-2.846-2.846ZM14.885 3.677l3.1 3.1h-6.197Zm19.4 41.818-.326-.326h8.31l-.326.326a5.414 5.414 0 0 1-7.659 0Zm24.923.573 1.867 1.868-13.138 13.141-1.868-1.867Zm0 0"/></svg>