<svg xmlns="http://www.w3.org/2000/svg" width="107.5" height="66.203" viewBox="0 0 107.5 66.203"><path fill="#466573" fill-rule="evenodd" d="M5.038 33.329a2.876 2.876 0 0 1 2.834-2.9h91.693a2.93 2.93 0 0 1 2.9 2.9v25a2.876 2.876 0 0 1-2.9 2.834h-5.353v-7.368a2.519 2.519 0 1 0-5.038 0v7.368h-7.62V47.877a2.519 2.519 0 0 0-5.038 0v13.288H68.9v-7.368a2.519 2.519 0 1 0-5.038 0v7.368h-7.62V47.877a2.519 2.519 0 0 0-5.038 0v13.288h-7.62v-7.368a2.487 2.487 0 0 0-2.519-2.519 2.526 2.526 0 0 0-2.519 2.519v7.368h-7.562V47.877a2.487 2.487 0 0 0-2.519-2.519 2.45 2.45 0 0 0-2.519 2.519v13.288h-7.62v-7.368a2.519 2.519 0 1 0-5.038 0v7.368H7.872a2.863 2.863 0 0 1-2.834-2.834Zm16.311-13.414a2.507 2.507 0 1 0 2.708-4.219L19.4 12.673h68.7l-4.723 3.023a2.6 2.6 0 0 0-.756 3.464 2.54 2.54 0 0 0 3.527.756l11.714-7.557a2.45 2.45 0 0 0 1.322-2.267 2.58 2.58 0 0 0-1.322-2.141L86.151.393a2.524 2.524 0 1 0-2.771 4.219l4.723 3.023H19.4l4.66-3.023a2.47 2.47 0 0 0 .756-3.464 2.523 2.523 0 0 0-3.464-.756L9.635 7.95a2.526 2.526 0 0 0-.063 4.408ZM107.5 58.331v-25a7.983 7.983 0 0 0-7.935-7.935H7.872A7.93 7.93 0 0 0 0 33.329v25a7.875 7.875 0 0 0 7.872 7.872h91.693a7.97 7.97 0 0 0 7.935-7.87"/></svg>