<svg xmlns="http://www.w3.org/2000/svg" width="80.148" height="80.143" viewBox="0 0 80.148 80.143"><path fill="#206360" d="m47.807 40.355 5.3-14.839a5.07 5.07 0 0 0 3.257 1.655l13.495 9.811a5.17 5.17 0 1 0 .414-2.883l-10.6-7.756a5.17 5.17 0 0 0-.233-8.79l8.3-7.187a5.17 5.17 0 1 0-3.128-.724l-8.3 7.187a5.17 5.17 0 0 0-4.627 4.861l-5.067 14.3a7.76 7.76 0 0 0-6.308-3.645l-14.839-5.3a5.07 5.07 0 0 0 1.655-3.257l9.759-13.499a5.17 5.17 0 1 0-2.883-.414l-7.756 10.6a5.17 5.17 0 0 0-8.777.207l-7.148-8.273a5.17 5.17 0 1 0-.724 3.128l7.239 8.273a5.17 5.17 0 0 0 4.809 4.653l14.3 5.093a7.76 7.76 0 0 0-3.645 5.791l-4.33 2.585a5.17 5.17 0 0 0-9.85 1.293L4.66 53.02a5.17 5.17 0 0 0 0 10.238l8.273 7.239a5.17 5.17 0 1 0 3.1-.672l-8.3-7.187a5.17 5.17 0 0 0 .207-8.777l10.6-7.756a5.17 5.17 0 0 0 9.772-1.4l4.253-2.585a7.76 7.76 0 0 0 6.735 5.726l2.585 4.33a5.17 5.17 0 0 0 1.293 9.85l9.8 13.456a5.17 5.17 0 0 0 10.238 0l7.238-8.262a5.17 5.17 0 1 0-.672-3.1l-7.187 8.3a5.17 5.17 0 0 0-8.777-.207l-7.756-10.6a5.17 5.17 0 0 0-1.4-9.772l-2.577-4.26a7.76 7.76 0 0 0 5.726-7.226ZM2.566 58.193a2.585 2.585 0 1 1 2.585 2.585 2.585 2.585 0 0 1-2.585-2.585m15.511 16.8a2.585 2.585 0 1 1-2.585-2.585 2.585 2.585 0 0 1 2.585 2.589Zm5.17-28.438a2.585 2.585 0 1 1 2.585-2.585 2.585 2.585 0 0 1-2.584 2.59Zm51.7-12.926a2.585 2.585 0 1 1-2.58 2.591 2.585 2.585 0 0 1 2.585-2.586Zm-7.75-31.018a2.585 2.585 0 1 1-2.585 2.585 2.585 2.585 0 0 1 2.585-2.585m-10.341 16.8a2.585 2.585 0 1 1-2.585 2.585 2.585 2.585 0 0 1 2.585-2.581Zm-20.682-16.8a2.585 2.585 0 1 1-2.589 2.585 2.585 2.585 0 0 1 2.589-2.585M5.151 15.537a2.585 2.585 0 1 1 2.585-2.585 2.585 2.585 0 0 1-2.585 2.585m14.219 7.756a2.585 2.585 0 1 1 2.585 2.585 2.585 2.585 0 0 1-2.585-2.585m15.515 16.804a5.17 5.17 0 1 1 5.17 5.17 5.17 5.17 0 0 1-5.17-5.17m40.067 21.974a2.585 2.585 0 1 1-2.585 2.585 2.585 2.585 0 0 1 2.585-2.585m-16.8 10.341a2.585 2.585 0 1 1-2.585 2.585 2.585 2.585 0 0 1 2.581-2.585ZM46.515 56.901a2.585 2.585 0 1 1-2.586-2.581 2.585 2.585 0 0 1 2.586 2.581"/></svg>