<svg xmlns="http://www.w3.org/2000/svg" width="83.448" height="85.818" viewBox="0 0 83.448 85.818"><g transform="translate(-3.459 -3.65)"><path d="M66.065,65.341H5.819a1.49,1.49,0,0,1-1.49-1.49v-9.5a1.49,1.49,0,0,1,1.49-1.49H66.065a1.49,1.49,0,0,1,1.49,1.49v9.5A1.49,1.49,0,0,1,66.065,65.341ZM7.31,62.361H64.574v-6.52H7.31Z" transform="translate(0.427 24.128)" fill="#206360"/><path d="M52.947,60.982,38.908,44.261H28.774V41.28H39.608a1.49,1.49,0,0,1,1.142.532L55.234,59.07Z" transform="translate(12.412 18.45)" fill="#206360"/><path d="M6.887,60.958,4.559,59.1,18.344,41.84a1.49,1.49,0,0,1,1.164-.56H31.714v2.981H20.225Z" transform="translate(0.539 18.45)" fill="#206360"/><path d="M29.83,54.741a31.949,31.949,0,0,1-4.642-.332.4.4,0,0,1-.122-.012c-5.259-.781-8.276-2.672-8.276-5.185s3.025-4.4,8.3-5.2A1.639,1.639,0,0,1,25.315,44v1.539l.216,1.425c-4.139.627-5.7,1.893-5.767,2.259.077.349,1.62,1.605,5.663,2.218l.122.012a28.844,28.844,0,0,0,4.28.311c6.3,0,9.916-1.788,10.076-2.557-.094-.471-2.156-1.845-6.706-2.355l.331-2.963c5.86.657,9.358,2.648,9.358,5.326,0,3.8-6.769,5.529-13.057,5.529Z" transform="translate(6.536 19.728)" fill="#206360"/><path d="M29.467,64.268H23.02a1.49,1.49,0,0,1-1.49-1.4,60.2,60.2,0,0,1,11.006-38.45,1.49,1.49,0,0,1,1.449-.61L49.4,26.236a1.49,1.49,0,0,1,.717,2.621A54.175,54.175,0,0,0,30.944,62.985a1.49,1.49,0,0,1-1.477,1.283Zm-5.025-2.981H28.19a57.163,57.163,0,0,1,17.586-32.6l-11.34-1.788a57.189,57.189,0,0,0-10,34.395Z" transform="translate(8.807 9.873)" fill="#206360"/><path d="M37.991,57.554a15.132,15.132,0,0,1-3.671-.447l.724-2.891a12.158,12.158,0,0,0,2.946.358c8,0,15.946-7.451,19.8-18.536a31.572,31.572,0,0,0,1.155-18.4C57.508,12.4,54.441,8.727,50.3,7.294a5.881,5.881,0,0,0-.624-.2l-.946-.225A10.784,10.784,0,0,0,46.4,6.631c-6.343,0-12.73,4.672-17.088,12.5a38.385,38.385,0,0,0-2.714,6.057c-.149.447-.3.911-.447,1.371L26.1,26.7a32.4,32.4,0,0,0-.988,15.618,18.629,18.629,0,0,0,2.42,6.167L25.025,50.1a21.59,21.59,0,0,1-2.832-7.153,35.454,35.454,0,0,1,1.058-17.118l.054-.168c.149-.483.3-.967.469-1.452A41.363,41.363,0,0,1,26.7,17.674C31.593,8.894,38.954,3.65,46.393,3.65a13.818,13.818,0,0,1,3.009.319l.958.23a8.778,8.778,0,0,1,.924.282c5.086,1.763,8.827,6.156,10.533,12.369A34.575,34.575,0,0,1,60.6,37.016C56.344,49.3,47.255,57.554,37.991,57.554Z" transform="translate(8.897 0)" fill="#206360"/><path d="M36.177,50.16c-.149,0-.311,0-.465-.01l.149-2.981c5.472.311,11.823-6.1,14.854-14.8,3.4-9.781,1.538-19.7-4.066-21.661-4.3-1.5-10.062,2.1-13.992,8.754a1.77,1.77,0,0,1-.1.149,33.688,33.688,0,0,0-2.547,5.578,26.724,26.724,0,0,0-1.1,14.925l-2.884.756a29.776,29.776,0,0,1,1.167-16.663,36.589,36.589,0,0,1,2.878-6.259,1.332,1.332,0,0,1,.116-.171C34.92,9.879,41.911,5.9,47.624,7.888c7.38,2.578,9.969,13.76,5.9,25.459C50.1,43.192,42.864,50.16,36.177,50.16Z" transform="translate(10.731 1.829)" fill="#206360"/><path d="M29.395,16.961H29.38V13.98Z" transform="translate(12.709 5.065)" fill="#206360"/><path d="M33.028,27.049,4.4,15.678a1.49,1.49,0,0,1-.776-2.066L7.709,5.665A1.49,1.49,0,0,1,9.6,4.972l27.869,11.46-1.131,2.757L9.735,8.249,7.028,13.514l27.1,10.766Z" transform="translate(0 0.593)" fill="#206360"/><path d="M45.882,57.963c-.407,0-.811-.009-1.221-.027L33.25,57.42l.137-2.981,11.411.522A23.448,23.448,0,0,0,51.277,8.717L43.023,6.762l.687-2.9,8.253,1.955a26.429,26.429,0,0,1-6.082,52.146Z" transform="translate(14.607 0.104)" fill="#206360"/></g></svg>