<svg xmlns="http://www.w3.org/2000/svg" width="111" height="66.6" viewBox="0 0 111 66.6"><path fill="#466573" d="M109.15 40.7H1.85A1.85 1.85 0 0 0 0 42.55v22.2a1.85 1.85 0 0 0 1.85 1.85h107.3a1.85 1.85 0 0 0 1.85-1.85v-22.2a1.85 1.85 0 0 0-1.85-1.85m-1.85 22.2H3.7V44.4h5.55v3.7a1.85 1.85 0 0 0 3.7 0v-3.7h7.4v7.4a1.85 1.85 0 0 0 3.7 0v-7.4h7.4v3.7a1.85 1.85 0 0 0 3.7 0v-3.7h7.4v7.4a1.85 1.85 0 0 0 3.7 0v-7.4h7.4v3.7a1.85 1.85 0 0 0 3.7 0v-3.7h7.4v7.4a1.85 1.85 0 0 0 3.7 0v-7.4h7.4v3.7a1.85 1.85 0 0 0 3.7 0v-3.7h7.4v7.4a1.85 1.85 0 0 0 3.7 0v-7.4h7.4v3.7a1.85 1.85 0 0 0 3.7 0v-3.7h5.55zM1.85 0A1.85 1.85 0 0 0 0 1.85V33.3a1.85 1.85 0 0 0 3.7 0V1.85A1.85 1.85 0 0 0 1.85 0m107.3 0a1.85 1.85 0 0 0-1.85 1.85V33.3a1.85 1.85 0 0 0 3.7 0V1.85A1.85 1.85 0 0 0 109.15 0m-5.948 17.313-8.589-11.1a1.65 1.65 0 0 0-1.905-.555 1.85 1.85 0 0 0-1.132 1.741v9.25H19.425V7.397a1.85 1.85 0 0 0-1.132-1.739 1.64 1.64 0 0 0-1.905.555l-8.589 11.1a1.964 1.964 0 0 0 0 2.37l8.589 11.1a1.67 1.67 0 0 0 1.319.664 1.6 1.6 0 0 0 .585-.111 1.85 1.85 0 0 0 1.132-1.739v-9.25h72.15v9.25a1.85 1.85 0 0 0 1.132 1.739 1.6 1.6 0 0 0 .585.111 1.68 1.68 0 0 0 1.321-.664l8.589-11.1a1.96 1.96 0 0 0 0-2.372Zm-87.213 7.176-4.636-5.99 4.636-5.99Zm79.021 0v-11.98l4.636 5.99Z"/></svg>